# xmcd
#
# Track frame offsets:
#	150
#	13337
#	27948
#	39246
#	61180
#	78032
#	92376
#
# Disc length: 1391 seconds
#
# Revision: 1
# Processed by: cddbd v1.5.1PL2 Copyright (c) Steve Scherf et al.
# Submitted via: audiograbber 1.80
#
DISCID=41056d07
DTITLE=Album - Bluegrass Music
DYEAR=1900
DGENRE=
TTITLE0=Heartbreak Game
TTITLE1=Smutná Paní
TTITLE2=I Saw Your Face In The Moon
TTITLE3=Tenderly Calling (Home Come On Home)
TTITLE4=Swert Away
TTITLE5=Midnight Highway
TTITLE6=Voyage Of Pequod
EXTD=
EXTT0=
EXTT1=
EXTT2=
EXTT3=
EXTT4=
EXTT5=
EXTT6=
PLAYORDER=
